<svg width="18" height="18" viewBox="0 0 18 18" fill="none" xmlns="http://www.w3.org/2000/svg">
<path d="M4.1713 6.63079L6.1603 8.49454C6.45182 8.78922 6.75182 9.26682 6.4603 9.56142C6.16855 9.85602 5.77075 9.85602 5.47915 9.56142L2.4322 6.47577C2.20082 6.24267 2.18395 5.86947 2.41532 5.63637L5.47922 2.50257C5.77082 2.20797 6.1687 2.20797 6.4603 2.50257C6.7519 2.79717 6.4519 3.27484 6.1603 3.56937L4.19717 5.50579H10.8923C13.5855 5.50579 15.7499 7.84159 15.7499 10.5285C15.7499 13.2154 13.5854 15.7817 10.8923 15.7817H3.75212C3.34225 15.7817 2.99837 15.5914 2.99837 15.1817C2.99837 14.7719 3.34225 14.6566 3.75212 14.6566H10.8329C12.6392 14.6566 14.6247 12.3306 14.6247 10.5285C14.6247 8.72629 12.6392 6.63094 10.8329 6.63094H4.1713V6.63079Z" fill="#41464F"/>
</svg>
