<svg width="32" height="32" viewBox="0 0 32 32" fill="none" xmlns="http://www.w3.org/2000/svg">
<circle cx="16" cy="16" r="16" fill="#C4B7FF"/>
<path d="M22.9954 13.7373C22.9954 12.131 21.8033 10.7873 20.2483 10.5629C19.996 10.5265 19.7881 10.7367 19.7881 10.9917C19.7881 11.2466 19.9969 11.4484 20.2467 11.4997C21.2896 11.7137 22.0721 12.6431 22.0721 13.7495C22.0721 14.8558 21.2896 15.7758 20.2467 15.9876C19.9969 16.0383 19.7881 16.2401 19.7881 16.4951C19.7881 16.75 19.996 16.9602 20.2483 16.9236C21.8033 16.6974 22.9954 15.3437 22.9954 13.7373Z" fill="#020814"/>
<path d="M24.9999 19.6052C24.9999 18.451 24.0645 17.5156 22.9103 17.5156H22.7466C22.5017 17.5156 22.3032 17.7141 22.3032 17.959C22.3032 18.2039 22.5017 18.4024 22.7466 18.4024H22.9103C23.5785 18.4024 24.1252 18.9491 24.1252 19.6173C24.1252 20.2855 23.5785 20.8322 22.9103 20.8322H22.7345C22.4963 20.8322 22.3032 21.0253 22.3032 21.2635C22.3032 21.5017 22.4963 21.6947 22.7345 21.6947H22.9103C24.0645 21.6947 24.9999 20.7593 24.9999 19.6052Z" fill="#020814"/>
<path d="M9.00464 13.7373C9.00464 12.131 10.1967 10.7873 11.7517 10.5629C12.004 10.5265 12.2119 10.7367 12.2119 10.9917C12.2119 11.2466 12.0031 11.4484 11.7533 11.4997C10.7104 11.7137 9.92795 12.6431 9.92795 13.7495C9.92795 14.8558 10.7104 15.7758 11.7533 15.9876C12.0031 16.0383 12.2119 16.2401 12.2119 16.4951C12.2119 16.75 12.004 16.9602 11.7517 16.9236C10.1967 16.6974 9.00464 15.3437 9.00464 13.7373Z" fill="#020814"/>
<path d="M7.00009 19.6052C7.00009 18.451 7.93555 17.5156 9.08968 17.5156H9.25338C9.49828 17.5156 9.69681 17.7141 9.69681 17.959C9.69681 18.2039 9.49828 18.4024 9.25338 18.4024H9.08968C8.4215 18.4024 7.8748 18.9491 7.8748 19.6173C7.8748 20.2855 8.4215 20.8322 9.08968 20.8322H9.26553C9.50372 20.8322 9.69681 21.0253 9.69681 21.2635C9.69681 21.5017 9.50372 21.6947 9.26553 21.6947H9.08968C7.93555 21.6947 7.00009 20.7593 7.00009 19.6052Z" fill="#020814"/>
<path d="M15.946 17.1026C13.8922 17.1026 12.2323 15.4286 12.2323 13.3889C12.2323 11.3492 13.8922 9.66113 15.946 9.66113C17.9997 9.66113 19.6597 11.3351 19.6597 13.3748C19.6597 15.4145 17.9997 17.1026 15.946 17.1026ZM15.946 10.7302C14.483 10.7302 13.3014 11.9119 13.3014 13.3748C13.3014 14.8378 14.4971 16.0335 15.946 16.0335C17.4089 16.0335 18.5906 14.8519 18.5906 13.3889C18.5906 11.9259 17.4089 10.7302 15.946 10.7302ZM19.5612 22.5887H12.3448C11.0085 22.5887 9.92529 21.5055 9.92529 20.1692C9.92529 18.8328 11.0085 17.7497 12.3448 17.7497H19.5612C20.8975 17.7497 21.9807 18.8328 21.9807 20.1692C21.9807 21.5055 20.8975 22.5887 19.5612 22.5887ZM12.3448 18.7765C11.5711 18.7765 10.9381 19.4096 10.9381 20.1832C10.9381 20.9569 11.5711 21.5899 12.3448 21.5899H19.5612C20.3349 21.5899 20.9679 20.9569 20.9679 20.1832C20.9679 19.4096 20.3349 18.7765 19.5612 18.7765H12.3448Z" fill="#020814"/>
</svg>
