<svg width="60" height="60" viewBox="0 0 60 60" fill="none" xmlns="http://www.w3.org/2000/svg">
<path d="M9.375 1.875C8.6715 1.875 7.9215 2.15625 7.40625 2.71875C6.89025 3.28125 6.5625 3.98475 6.5625 4.6875V55.3125C6.5625 56.016 6.84375 56.766 7.40625 57.2812C7.96875 57.8438 8.67225 58.125 9.375 58.125H50.625C51.3285 58.125 52.0785 57.8438 52.5938 57.2812C53.1562 56.7188 53.4375 56.0153 53.4375 55.3125V17.8125L37.5 1.875H9.375Z" fill="#C2D7FF"/>
<path d="M53.4375 17.8125H40.3125C39.609 17.8125 38.859 17.5312 38.3438 16.9688C37.7813 16.4528 37.5 15.7028 37.5 15V1.875L53.4375 17.8125Z" fill="white" fill-opacity="0.5"/>
<path d="M20.7544 33.3423C18.9575 33.3423 17.5 31.8848 17.5 30.0879C17.5 28.291 18.9575 26.8335 20.7544 26.8335C22.5513 26.8335 24.0088 28.291 24.0088 30.0879C24.0088 31.8848 22.5513 33.3423 20.7544 33.3423ZM30 33.3423C28.2031 33.3423 26.7456 31.8848 26.7456 30.0879C26.7456 28.291 28.2031 26.8335 30 26.8335C31.7969 26.8335 33.2544 28.291 33.2544 30.0879C33.2544 31.8848 31.7969 33.3423 30 33.3423ZM39.2456 33.3423C37.4487 33.3423 35.9912 31.8848 35.9912 30.0879C35.9912 28.291 37.4487 26.8335 39.2456 26.8335C41.0425 26.8335 42.5 28.291 42.5 30.0879C42.5 31.8848 41.0425 33.3423 39.2456 33.3423Z" fill="white"/>
</svg>
