<svg width="60" height="60" viewBox="0 0 60 60" fill="none" xmlns="http://www.w3.org/2000/svg">
<path d="M9.375 1.875C8.6715 1.875 7.9215 2.15625 7.40625 2.71875C6.89025 3.28125 6.5625 3.98475 6.5625 4.6875V55.3125C6.5625 56.016 6.84375 56.766 7.40625 57.2812C7.96875 57.8438 8.67225 58.125 9.375 58.125H50.625C51.3285 58.125 52.0785 57.8438 52.5938 57.2812C53.1562 56.7188 53.4375 56.0153 53.4375 55.3125V17.8125L37.5 1.875H9.375Z" fill="#FF5F59"/>
<path d="M53.4375 17.8125H40.3125C39.609 17.8125 38.859 17.5312 38.3438 16.9688C37.7813 16.4528 37.5 15.7028 37.5 15V1.875L53.4375 17.8125Z" fill="white" fill-opacity="0.5"/>
<path d="M23.8582 20.7605C23.5409 20.7605 23.2812 21.0201 23.2812 21.3374V41.2413C23.2812 41.5586 23.5409 41.8182 23.8582 41.8182H26.2019C26.5192 41.8182 26.7788 41.5586 26.7788 41.2413V34.3542H31.3437C35.6274 34.3542 38.2812 31.549 38.2812 27.5682C38.2812 23.6379 35.6635 20.7677 31.3582 20.7677H23.8582V20.7605ZM34.7187 27.561C34.7187 30.6908 32.8077 31.4768 29.5841 31.4768H26.7788V23.6595H30.8317C33.2692 23.6595 34.7187 25.0802 34.7187 27.561Z" fill="white"/>
</svg>
